<?xml version="1.0" encoding="UTF-8" standalone="no"?>
<!-- Created with Inkscape (http://www.inkscape.org/) -->

<svg
   xmlns:dc="http://purl.org/dc/elements/1.1/"
   xmlns:cc="http://creativecommons.org/ns#"
   xmlns:rdf="http://www.w3.org/1999/02/22-rdf-syntax-ns#"
   xmlns:svg="http://www.w3.org/2000/svg"
   xmlns="http://www.w3.org/2000/svg"
   xmlns:sodipodi="http://sodipodi.sourceforge.net/DTD/sodipodi-0.dtd"
   xmlns:inkscape="http://www.inkscape.org/namespaces/inkscape"
   width="3.7489066in"
   height="0.665645in"
   viewBox="0 0 95.222228 16.907385"
   version="1.1"
   id="svg8"
   inkscape:version="0.92.3 (2405546, 2018-03-11)"
   sodipodi:docname="joins.svg">
  <defs
     id="defs2" />
  <sodipodi:namedview
     id="base"
     pagecolor="#ffffff"
     bordercolor="#666666"
     borderopacity="1.0"
     inkscape:pageopacity="0.0"
     inkscape:pageshadow="2"
     inkscape:zoom="1.979899"
     inkscape:cx="156.01975"
     inkscape:cy="15.000076"
     inkscape:document-units="mm"
     inkscape:current-layer="layer1"
     showgrid="false"
     inkscape:window-width="1366"
     inkscape:window-height="744"
     inkscape:window-x="0"
     inkscape:window-y="0"
     inkscape:window-maximized="1"
     units="in"
     fit-margin-top="0"
     fit-margin-left="0"
     fit-margin-right="0"
     fit-margin-bottom="0" />
  <metadata
     id="metadata5">
    <rdf:RDF>
      <cc:Work
         rdf:about="">
        <dc:format>image/svg+xml</dc:format>
        <dc:type
           rdf:resource="http://purl.org/dc/dcmitype/StillImage" />
        <dc:title></dc:title>
      </cc:Work>
    </rdf:RDF>
  </metadata>
  <g
     inkscape:label="Layer 1"
     inkscape:groupmode="layer"
     id="layer1"
     transform="translate(-33.365109,-47.450634)">
    <path
       style="fill:#61a1b0;fill-opacity:1;stroke:none;stroke-width:0.1177289"
       d="m 112.42354,47.45108 c -2.20309,0.04317 -4.37261,1.198706 -5.49824,3.117827 -0.771,1.129855 -1.0899,2.512576 -0.94763,3.868551 0.14262,2.020257 1.41807,3.870543 3.08252,4.967137 1.187,0.651697 2.54055,1.0877 3.90721,0.897044 1.43673,-0.05988 2.8655,-0.578845 3.95999,-1.519449 -1.13437,-1.250989 -2.04854,-2.782776 -2.16499,-4.501184 -0.11884,-1.939048 0.77374,-3.821983 2.16964,-5.1349 0.0665,-0.367979 -0.80702,-0.657045 -1.12841,-0.896318 -1.04673,-0.509198 -2.21226,-0.812426 -3.38009,-0.798708 z m 9.65827,0.09947 c -1.62643,-0.02448 -3.22204,0.594399 -4.52798,1.538087 1.44593,1.439887 2.38301,3.51502 2.0251,5.580352 -0.19989,1.554243 -0.98949,2.958667 -2.03694,4.099763 0.8863,0.716594 1.97684,1.159936 3.06046,1.482545 2.60705,0.489567 5.39806,-0.690447 6.88356,-2.883771 1.44738,-2.039603 1.5005,-5.004741 -0.0331,-7.016487 -1.22248,-1.716669 -3.27548,-2.744352 -5.37114,-2.800489 z m -4.79226,1.739081 c -1.03293,0.951889 -1.89226,2.197729 -2.10632,3.605554 -0.1615,1.629156 0.11406,3.36936 1.17846,4.66708 0.36312,0.583263 0.97937,1.340321 1.42687,0.366244 1.63758,-1.922662 2.05093,-4.910948 0.68012,-7.092317 -0.31112,-0.575466 -0.74653,-1.061787 -1.17913,-1.546561 z"
       id="path35"
       inkscape:connector-curvature="0" />
    <path
       style="fill:#61a1b0;fill-opacity:1;stroke:none;stroke-width:0.11772891"
       d="m 92.548274,58.464113 c -0.300434,-0.250701 -0.857822,-0.988483 -1.220989,-1.616155 -0.671593,-1.160734 -0.985436,-2.961436 -0.726542,-4.168615 0.214743,-1.001313 0.827135,-2.107917 1.632361,-2.949708 l 0.736087,-0.769514 0.676753,0.707725 c 0.663036,0.693382 1.445747,2.005657 1.61425,2.706414 0.165805,0.689536 0.06784,2.71573 -0.163863,3.389188 -0.328814,0.955714 -1.309329,2.424629 -1.566764,2.347178 -0.05914,-0.01779 -0.07621,0.01832 -0.03794,0.08024 0.07277,0.117749 -0.369169,0.483803 -0.578628,0.47927 -0.06653,-0.0014 -0.230657,-0.09415 -0.364725,-0.206025 z"
       id="path48"
       inkscape:connector-curvature="0" />
    <path
       inkscape:connector-curvature="0"
       style="fill:#e6e6e6;stroke:none;stroke-width:0.11772891"
       d="m 88.718868,47.513975 c -1.327653,-0.01055 -2.692666,0.356116 -3.748355,1.03844 -2.557516,1.653004 -3.638615,4.552039 -2.707183,7.259293 0.760194,2.209543 2.781652,3.968204 5.054258,4.397323 1.324085,0.250015 3.14548,-0.03927 4.479497,-0.711793 0.884163,-0.445735 0.88118,-0.423782 0.161388,-1.219177 -0.757271,-0.836812 -1.37883,-2.028762 -1.659637,-3.182471 -0.449245,-1.845748 0.230398,-4.13909 1.668514,-5.62993 0.356439,-0.369505 0.648058,-0.703233 0.648058,-0.741612 0,-0.162107 -1.784371,-0.899153 -2.594051,-1.071447 -0.421362,-0.08966 -0.859938,-0.135109 -1.302489,-0.138626 z m 8.690391,0.0068 c -0.165201,3.5e-4 -0.330895,0.0071 -0.496685,0.02026 -1.008884,0.08014 -2.121765,0.377477 -2.847856,0.76096 -0.844633,0.44609 -0.83615,0.407818 -0.227856,1.042537 0.698475,0.728821 0.794885,0.867966 1.292018,1.864504 0.524874,1.052147 0.707648,1.96226 0.609133,3.031097 -0.146541,1.589894 -0.769922,2.973366 -1.858813,4.124852 l -0.621197,0.656936 0.708834,0.383781 c 0.770149,0.417091 1.357446,0.631829 2.180452,0.796926 0.291379,0.05846 0.980725,0.08393 1.531938,0.05668 4.690753,-0.231894 7.717663,-5.108816 5.680233,-9.152023 -1.0992,-2.181329 -3.472175,-3.592277 -5.950201,-3.58651 z"
       id="path52" />
    <path
       style="fill:#61a1b0;fill-opacity:1;stroke:none;stroke-width:0.1177289"
       d="m 40.086191,47.514357 c -1.535298,-0.02649 -3.083114,0.447629 -4.269263,1.439447 -1.321861,1.060588 -2.435111,2.596328 -2.438659,4.355133 -0.07144,1.248786 0.140549,2.537137 0.818878,3.606642 0.543785,1.025778 1.368454,1.891628 2.396118,2.44119 1.213326,0.738507 2.660211,1.100427 4.074726,0.876121 1.113125,-0.148206 2.238095,-0.473896 3.167611,-1.115153 0.06726,-0.59027 -0.706958,-0.941877 -0.956526,-1.458398 -1.097009,-1.486768 -1.559639,-3.435429 -1.14157,-5.246524 0.218501,-1.314005 1.1053,-2.352012 1.988184,-3.290301 0.758315,-0.571198 -0.492162,-0.790007 -0.88887,-1.017573 -0.873907,-0.366619 -1.796414,-0.612887 -2.750629,-0.590584 z m 4.291931,1.447944 c -0.978273,0.918103 -1.964266,1.942548 -2.251803,3.303522 -0.37118,1.769196 -0.123697,3.747261 1.024469,5.1955 0.353296,0.437517 0.686948,0.939735 1.196376,1.203632 0.676958,-0.261407 1.041347,-0.987267 1.452419,-1.546205 0.584155,-0.886427 1.009576,-1.902682 0.991041,-2.981089 0.05797,-1.162289 -0.15005,-2.364769 -0.82339,-3.336186 -0.423801,-0.700538 -1.003294,-1.276101 -1.589112,-1.839174 z"
       id="path43"
       inkscape:connector-curvature="0" />
    <path
       style="fill:#e6e6e6;stroke:none;stroke-width:0.11772891"
       d="m 47.556741,60.194847 c -0.823006,-0.165099 -1.410286,-0.379709 -2.180435,-0.796799 l -0.708826,-0.383881 0.621089,-0.656791 c 1.24715,-1.318842 1.827892,-2.762709 1.838942,-4.572055 0.01087,-1.780064 -0.514399,-3.022084 -1.88127,-4.448338 -0.608337,-0.634766 -0.616682,-0.5966 0.227954,-1.042692 0.726091,-0.383483 1.838899,-0.680852 2.847784,-0.760995 2.929005,-0.232674 5.807798,1.580977 6.806033,4.287829 0.364859,0.989364 0.337627,2.962249 -0.05549,4.020181 -0.952764,2.564015 -3.276123,4.276413 -5.983795,4.410271 -0.551213,0.02725 -1.240606,0.0017 -1.531986,-0.05673 z"
       id="path57"
       inkscape:connector-curvature="0" />
    <path
       style="fill:#61a1b0;fill-opacity:1;stroke:none;stroke-width:0.1177289"
       d="m 73.36,47.57656 c -1.595812,-0.03339 -3.112851,0.606224 -4.406537,1.498859 -1.23e-4,0.135974 0.276442,0.306264 0.378199,0.454874 1.019169,1.014362 1.640305,2.407487 1.656163,3.850666 0.10773,1.741024 -0.422582,3.52976 -1.587663,4.845697 -0.154554,0.184513 -0.309108,0.369026 -0.463666,0.553538 0.827764,0.690931 1.862047,1.084464 2.866468,1.443152 1.077116,0.221672 2.205861,0.107676 3.276246,-0.105433 2.231876,-0.631206 4.163784,-2.42376 4.700024,-4.7166 0.480815,-1.85652 0.134433,-3.996021 -1.218472,-5.415769 C 77.602199,48.849322 76.278133,48.040769 74.819393,47.742727 74.3406,47.636164 73.850589,47.579131 73.36,47.57656 Z m -4.689827,1.708805 c -0.902238,1.010034 -1.808589,2.136559 -1.943599,3.536948 -0.213711,1.660605 0.08747,3.432452 1.120645,4.786103 0.308019,0.363827 0.745763,1.29762 1.169111,0.526479 1.571351,-1.701278 2.119679,-4.314269 1.278405,-6.481879 -0.350069,-0.908767 -0.982323,-1.652757 -1.624562,-2.367651 z"
       id="path30"
       inkscape:connector-curvature="0" />
    <path
       style="fill:#e6e6e6;stroke:none;stroke-width:0.11772891"
       d="m 62.889835,60.308599 c -2.373475,-0.368612 -4.459781,-2.155507 -5.261239,-4.506188 -0.356029,-1.044234 -0.358986,-2.927758 -0.0061,-3.904789 0.47802,-1.323605 1.959497,-3.070444 3.086306,-3.639127 1.446612,-0.730082 3.118268,-0.970575 4.594507,-0.66099 0.888057,0.186236 2.292914,0.810198 2.80861,1.247435 l 0.277437,0.235227 -0.380776,0.433681 c -1.527923,1.740206 -2.075378,3.839948 -1.539838,5.905978 0.281527,1.086085 0.778664,2.059803 1.442822,2.825985 l 0.44362,0.511767 -0.319216,0.266814 c -0.40843,0.341383 -1.190656,0.737933 -2.020622,1.024354 -0.648526,0.223808 -2.412992,0.370505 -3.12548,0.259853 z"
       id="path59"
       inkscape:connector-curvature="0" />
    <flowRoot
       xml:space="preserve"
       id="flowRoot102"
       style="font-style:normal;font-weight:normal;font-size:40px;line-height:1.25;font-family:sans-serif;letter-spacing:0px;word-spacing:0px;fill:#000000;fill-opacity:1;stroke:none"
       transform="matrix(0.0801659,0,0,0.0801659,26.292447,35.851229)"><flowRegion
         id="flowRegion104"><rect
           id="rect106"
           width="249.50768"
           height="78.791901"
           x="146.47212"
           y="310.35703" /></flowRegion><flowPara
         id="flowPara108"
         style="font-style:normal;font-variant:normal;font-weight:normal;font-stretch:normal;font-family:'CMU Serif';-inkscape-font-specification:'CMU Serif'">Left Join</flowPara></flowRoot>    <flowRoot
       xml:space="preserve"
       id="flowRoot102-9"
       style="font-style:normal;font-weight:normal;font-size:40px;line-height:1.25;font-family:sans-serif;letter-spacing:0px;word-spacing:0px;fill:#000000;fill-opacity:1;stroke:none"
       transform="matrix(0.0801659,0,0,0.0801659,46.90449,35.851229)"><flowRegion
         id="flowRegion104-1"><rect
           id="rect106-9"
           width="249.50768"
           height="78.791901"
           x="146.47212"
           y="310.35703" /></flowRegion><flowPara
         id="flowPara108-6"
         style="font-style:normal;font-variant:normal;font-weight:normal;font-stretch:normal;font-family:'CMU Serif';-inkscape-font-specification:'CMU Serif';text-align:center;text-anchor:middle">Right Join</flowPara></flowRoot>    <flowRoot
       xml:space="preserve"
       id="flowRoot102-9-9"
       style="font-style:normal;font-weight:normal;font-size:40px;line-height:1.25;font-family:sans-serif;letter-spacing:0px;word-spacing:0px;fill:#000000;fill-opacity:1;stroke:none"
       transform="matrix(0.0801659,0,0,0.0801659,97.874988,35.851229)"><flowRegion
         id="flowRegion104-1-3"><rect
           id="rect106-9-3"
           width="249.50768"
           height="78.791901"
           x="146.47212"
           y="310.35703" /></flowRegion><flowPara
         id="flowPara108-6-8"
         style="font-style:normal;font-variant:normal;font-weight:normal;font-stretch:normal;font-family:'CMU Serif';-inkscape-font-specification:'CMU Serif'">Outer Join</flowPara></flowRoot>    <flowRoot
       xml:space="preserve"
       id="flowRoot102-9-9-0"
       style="font-style:normal;font-weight:normal;font-size:40px;line-height:1.25;font-family:sans-serif;letter-spacing:0px;word-spacing:0px;fill:#000000;fill-opacity:1;stroke:none"
       transform="matrix(0.0801659,0,0,0.0801659,74.023779,35.851229)"><flowRegion
         id="flowRegion104-1-3-5"><rect
           id="rect106-9-3-6"
           width="249.50768"
           height="78.791901"
           x="146.47212"
           y="310.35703" /></flowRegion><flowPara
         id="flowPara108-6-8-6"
         style="font-style:normal;font-variant:normal;font-weight:normal;font-stretch:normal;font-family:'CMU Serif';-inkscape-font-specification:'CMU Serif'">Inner Join</flowPara></flowRoot>  </g>
</svg>
