<?xml version="1.0" encoding="UTF-8" standalone="no"?>
<!-- Created with Inkscape (http://www.inkscape.org/) -->

<svg
   xmlns:dc="http://purl.org/dc/elements/1.1/"
   xmlns:cc="http://creativecommons.org/ns#"
   xmlns:rdf="http://www.w3.org/1999/02/22-rdf-syntax-ns#"
   xmlns:svg="http://www.w3.org/2000/svg"
   xmlns="http://www.w3.org/2000/svg"
   xmlns:sodipodi="http://sodipodi.sourceforge.net/DTD/sodipodi-0.dtd"
   xmlns:inkscape="http://www.inkscape.org/namespaces/inkscape"
   width="200.22447mm"
   height="68.504036mm"
   viewBox="0 0 200.22447 68.504036"
   version="1.1"
   id="svg254"
   inkscape:version="0.92.2 (5c3e80d, 2017-08-06)"
   sodipodi:docname="grid_template_example.svg">
  <defs
     id="defs248" />
  <sodipodi:namedview
     id="base"
     pagecolor="#ffffff"
     bordercolor="#666666"
     borderopacity="1.0"
     inkscape:pageopacity="0.0"
     inkscape:pageshadow="2"
     inkscape:zoom="0.7"
     inkscape:cx="212.69254"
     inkscape:cy="139.77028"
     inkscape:document-units="mm"
     inkscape:current-layer="layer1"
     showgrid="false"
     fit-margin-top="0"
     fit-margin-left="0"
     fit-margin-right="0"
     fit-margin-bottom="0"
     inkscape:window-width="1853"
     inkscape:window-height="1025"
     inkscape:window-x="67"
     inkscape:window-y="27"
     inkscape:window-maximized="1" />
  <metadata
     id="metadata251">
    <rdf:RDF>
      <cc:Work
         rdf:about="">
        <dc:format>image/svg+xml</dc:format>
        <dc:type
           rdf:resource="http://purl.org/dc/dcmitype/StillImage" />
        <dc:title></dc:title>
      </cc:Work>
    </rdf:RDF>
  </metadata>
  <g
     inkscape:label="Layer 1"
     inkscape:groupmode="layer"
     id="layer1"
     transform="translate(-44.050595,-45.013187)">
    <path
       style="opacity:1;fill:#483737;fill-opacity:1;stroke:#ffffff;stroke-width:1;stroke-linecap:round;stroke-linejoin:round;stroke-miterlimit:4;stroke-dasharray:none;stroke-dashoffset:0;stroke-opacity:1;paint-order:stroke markers fill"
       d="m 44.643234,62.079414 c 0,1.336352 0,2.672705 0,4.009057 1.514463,0 3.028927,0 4.54339,0 0,-1.336352 0,-2.672705 0,-4.009057 -1.514463,0 -3.028927,0 -4.54339,0 z m 5.612577,0 c 0,1.336352 0,2.672705 0,4.009057 1.514464,0 3.028927,0 4.543391,0 0,-1.336352 0,-2.672705 0,-4.009057 -1.514464,0 -3.028927,0 -4.543391,0 z m 5.612577,0 c 0,1.336352 0,2.672705 0,4.009057 1.514636,0 3.029273,0 4.543909,0 0,-1.336352 0,-2.672705 0,-4.009057 -1.514636,0 -3.029273,0 -4.543909,0 z m -11.225154,4.811075 c 0,1.336353 0,2.672706 0,4.009059 1.514463,0 3.028927,0 4.54339,0 0,-1.336353 0,-2.672706 0,-4.009059 -1.514463,0 -3.028927,0 -4.54339,0 z m 5.612577,0 c 0,1.336353 0,2.672706 0,4.009059 1.514464,0 3.028927,0 4.543391,0 0,-1.336353 0,-2.672706 0,-4.009059 -1.514464,0 -3.028927,0 -4.543391,0 z m 5.612577,0 c 0,1.336353 0,2.672706 0,4.009059 1.514636,0 3.029273,0 4.543909,0 0,-1.336353 0,-2.672706 0,-4.009059 -1.514636,0 -3.029273,0 -4.543909,0 z m -11.225154,5.077727 c 0,1.336352 0,2.672705 0,4.009057 1.514463,0 3.028927,0 4.54339,0 0,-1.336352 0,-2.672705 0,-4.009057 -1.514463,0 -3.028927,0 -4.54339,0 z m 5.612577,0 c 0,1.336352 0,2.672705 0,4.009057 1.514464,0 3.028927,0 4.543391,0 0,-1.336352 0,-2.672705 0,-4.009057 -1.514464,0 -3.028927,0 -4.543391,0 z m 5.612577,0 c 0,1.336352 0,2.672705 0,4.009057 1.514636,0 3.029273,0 4.543909,0 0,-1.336352 0,-2.672705 0,-4.009057 -1.514636,0 -3.029273,0 -4.543909,0 z"
       id="path297"
       inkscape:connector-curvature="0" />
    <path
       style="opacity:1;fill:#483737;fill-opacity:1;stroke:#ffffff;stroke-width:1;stroke-linecap:round;stroke-linejoin:round;stroke-miterlimit:4;stroke-dasharray:none;stroke-dashoffset:0;stroke-opacity:1;paint-order:stroke markers fill"
       d="m 57.774469,80.587532 c 0,0.80185 0,1.60369 0,2.40554 0.890902,0 1.781805,0 2.672707,0 0,-0.80185 0,-1.60369 0,-2.40554 -0.890902,0 -1.781805,0 -2.672707,0 z m -13.195575,0.0227 c 0,0.75723 0,1.51447 0,2.2717 0.890902,0 1.781803,0 2.672705,0 0,-0.75723 0,-1.51447 0,-2.2717 -0.890902,0 -1.781803,0 -2.672705,0 z m 3.741891,0 c 0,0.75723 0,1.51447 0,2.2717 2.761761,0 5.523521,0 8.285282,0 0,-0.75723 0,-1.51447 0,-2.2717 -2.761761,0 -5.523521,0 -8.285282,0 z m -1.069186,3.19774 c -0.868509,0.0255 -1.737018,0.051 -2.605527,0.0765 -0.02411,1.89308 -0.04823,3.78616 -0.07234,5.67924 0.892624,0 1.785248,0 2.677872,0 -3e-6,-1.91858 7e-6,-3.83716 -5e-6,-5.75574 z m 9.354468,0.006 c -2.739543,0.0233 -5.479083,0.0469 -8.21862,0.0708 -0.02367,1.89308 -0.04762,3.78616 -0.07183,5.67924 2.763484,0 5.526968,0 8.290452,0 -10e-7,-1.91668 3e-6,-3.83336 -2e-6,-5.75004 z m 1.069183,0.004 c 0,1.91547 0,3.83095 0,5.74642 0.890902,0 1.781805,0 2.672707,0 0,-1.91547 0,-3.83095 0,-5.74642 -0.890902,0 -1.781805,0 -2.672707,0 z m -13.096356,6.68176 c 0,1.33635 0,2.67271 0,4.00906 0.935516,0 1.871031,0 2.806547,0 0,-1.33635 0,-2.67271 0,-4.00906 -0.935516,0 -1.871031,0 -2.806547,0 z m 3.741891,0 c 0,1.33635 0,2.67271 0,4.00906 2.806375,0 5.612749,0 8.419124,0 0,-1.33635 0,-2.67271 0,-4.00906 -2.806375,0 -5.612749,0 -8.419124,0 z m 9.354465,0 c 0,1.33635 0,2.67271 0,4.00906 0.935517,0 1.871033,0 2.80655,0 0,-1.33635 0,-2.67271 0,-4.00906 -0.935517,0 -1.871033,0 -2.80655,0 z"
       id="path323"
       inkscape:connector-curvature="0" />
    <path
       style="opacity:1;fill:#483737;fill-opacity:1;stroke:#ffffff;stroke-width:1;stroke-linecap:round;stroke-linejoin:round;stroke-miterlimit:4;stroke-dasharray:none;stroke-dashoffset:0;stroke-opacity:1;paint-order:stroke markers fill"
       d="m 44.591712,99.119055 c 0,0.75723 0,1.514455 0,2.271685 0.890902,0 1.781803,0 2.672705,0 0,-0.75723 0,-1.514455 0,-2.271685 -0.890902,0 -1.781803,0 -2.672705,0 z m 3.741891,0 c 0,0.75723 0,1.514455 0,2.271685 0.890901,0 1.781803,0 2.672704,0 0,-0.75723 0,-1.514455 0,-2.271685 -0.890901,0 -1.781803,0 -2.672704,0 z m 3.741888,0 c 0,0.75723 0,1.514455 0,2.271685 2.761761,0 5.523523,0 8.285284,0 0,-0.75723 0,-1.514455 0,-2.271685 -2.761761,0 -5.523523,0 -8.285284,0 z m -7.483779,3.340875 c 0,2.40536 0,4.81073 0,7.21609 0.890902,0 1.781803,0 2.672705,0 0,-2.40536 0,-4.81073 0,-7.21609 -0.890902,0 -1.781803,0 -2.672705,0 z m 3.741891,0 c 0,2.40536 0,4.81073 0,7.21609 0.890901,0 1.781803,0 2.672704,0 0,-2.40536 0,-4.81073 0,-7.21609 -0.890901,0 -1.781803,0 -2.672704,0 z m 3.741888,0 c 0,2.40536 0,4.81073 0,7.21609 2.761761,0 5.523523,0 8.285284,0 0,-2.40536 0,-4.81073 0,-7.21609 -2.761761,0 -5.523523,0 -8.285284,0 z m -3.741888,8.14214 c 0,0.80494 0,1.60989 0,2.41483 0.93896,0 1.877921,0 2.816881,0 -0.243418,-0.74096 0.489364,-2.43497 -0.755953,-2.35729 -0.686969,-0.0192 -1.373989,-0.0384 -2.060928,-0.0575 z m 3.741888,0.006 c 0,0.80305 0,1.6061 0,2.40915 2.80982,0 5.619641,0 8.429461,0 -0.198173,-0.73128 0.212985,-1.55015 -0.184051,-2.2316 -0.661168,-0.3007 -1.483796,-0.0229 -2.213905,-0.1266 -2.010497,-0.0171 -4.021022,-0.0342 -6.031505,-0.051 z m -7.416601,0.0708 c 0.193384,0.71553 -0.503685,1.93849 0.260747,2.33835 0.829654,0 1.659307,0 2.488961,0 -0.237972,-0.7142 0.37074,-1.95697 -0.415257,-2.33835 -0.778151,0 -1.556301,0 -2.334451,0 z"
       id="path349"
       inkscape:connector-curvature="0" />
    <flowRoot
       transform="matrix(0.26458333,0,0,0.26458333,25.00993,44.998906)"
       xml:space="preserve"
       id="flowRoot1187"
       style="font-style:normal;font-weight:normal;font-size:40px;line-height:1.25;font-family:sans-serif;letter-spacing:0px;word-spacing:0px;fill:#000000;fill-opacity:1;stroke:none"><flowRegion
         id="flowRegion1189"><rect
           id="rect1191"
           width="615.18292"
           height="140.41121"
           x="201.02036"
           y="67.920425" /></flowRegion><flowPara
         id="flowPara1195"
         style="font-style:normal;font-variant:normal;font-weight:normal;font-stretch:normal;font-family:'CMU Serif';-inkscape-font-specification:'CMU Serif'">1fr 1fr 1fr</flowPara></flowRoot>    <flowRoot
       transform="matrix(0.26458333,0,0,0.26458333,12.081975,62.285766)"
       xml:space="preserve"
       id="flowRoot1187-35"
       style="font-style:normal;font-weight:normal;font-size:40px;line-height:1.25;font-family:sans-serif;letter-spacing:0px;word-spacing:0px;fill:#000000;fill-opacity:1;stroke:none"><flowRegion
         id="flowRegion1189-62"><rect
           id="rect1191-9"
           width="615.18292"
           height="140.41121"
           x="201.02036"
           y="67.920425" /></flowRegion><flowPara
         id="flowPara1195-1"
         style="font-style:normal;font-variant:normal;font-weight:normal;font-stretch:normal;font-family:'CMU Serif';-inkscape-font-specification:'CMU Serif'">50px auto 50px</flowPara></flowRoot>    <flowRoot
       transform="matrix(0.26458333,0,0,0.26458333,112.2534,62.285766)"
       xml:space="preserve"
       id="flowRoot1187-35-2"
       style="font-style:normal;font-weight:normal;font-size:40px;line-height:1.25;font-family:sans-serif;letter-spacing:0px;word-spacing:0px;fill:#000000;fill-opacity:1;stroke:none"><flowRegion
         id="flowRegion1189-62-7"><rect
           id="rect1191-9-0"
           width="615.18292"
           height="140.41121"
           x="201.02036"
           y="67.920425" /></flowRegion><flowPara
         id="flowPara1195-1-9"
         style="font-style:normal;font-variant:normal;font-weight:normal;font-stretch:normal;font-family:'CMU Serif';-inkscape-font-specification:'CMU Serif'">50px auto 90px</flowPara></flowRoot>    <flowRoot
       transform="matrix(0.26458333,0,0,0.26458333,14.511181,81.980492)"
       xml:space="preserve"
       id="flowRoot1187-35-2-3"
       style="font-style:normal;font-weight:normal;font-size:40px;line-height:1.25;font-family:sans-serif;letter-spacing:0px;word-spacing:0px;fill:#000000;fill-opacity:1;stroke:none"><flowRegion
         id="flowRegion1189-62-7-6"><rect
           id="rect1191-9-0-0"
           width="615.18292"
           height="140.41121"
           x="201.02036"
           y="67.920425" /></flowRegion><flowPara
         id="flowPara1195-1-9-6"
         style="font-style:normal;font-variant:normal;font-weight:normal;font-stretch:normal;font-family:'CMU Serif';-inkscape-font-specification:'CMU Serif'">20% 20% auto</flowPara></flowRoot>    <flowRoot
       transform="matrix(0.26458333,0,0,0.26458333,-3.8639658,24.597958)"
       xml:space="preserve"
       id="flowRoot1187-2"
       style="font-style:normal;font-weight:normal;font-size:40px;line-height:1.25;font-family:sans-serif;letter-spacing:0px;word-spacing:0px;fill:#000000;fill-opacity:1;stroke:none"><flowRegion
         id="flowRegion1189-6"><rect
           id="rect1191-1"
           width="615.18292"
           height="140.41121"
           x="201.02036"
           y="67.920425" /></flowRegion><flowPara
         id="flowPara1195-8"
         style="font-style:normal;font-variant:normal;font-weight:normal;font-stretch:normal;font-family:'CMU Serif';-inkscape-font-specification:'CMU Serif'">grid-template-columns</flowPara></flowRoot>    <flowRoot
       transform="matrix(0.26458333,0,0,0.26458333,104.65837,24.597958)"
       xml:space="preserve"
       id="flowRoot1187-2-7"
       style="font-style:normal;font-weight:normal;font-size:40px;line-height:1.25;font-family:sans-serif;letter-spacing:0px;word-spacing:0px;fill:#000000;fill-opacity:1;stroke:none"><flowRegion
         id="flowRegion1189-6-9"><rect
           id="rect1191-1-2"
           width="615.18292"
           height="140.41121"
           x="201.02036"
           y="67.920425" /></flowRegion><flowPara
         id="flowPara1195-8-0"
         style="font-style:normal;font-variant:normal;font-weight:normal;font-stretch:normal;font-family:'CMU Serif';-inkscape-font-specification:'CMU Serif'">grid-template-rows</flowPara></flowRoot>    <flowRoot
       transform="matrix(0.26458333,0,0,0.26458333,110.81588,81.250242)"
       xml:space="preserve"
       id="flowRoot1187-35-2-3-2"
       style="font-style:normal;font-weight:normal;font-size:40px;line-height:1.25;font-family:sans-serif;letter-spacing:0px;word-spacing:0px;fill:#000000;fill-opacity:1;stroke:none"><flowRegion
         id="flowRegion1189-62-7-6-3"><rect
           id="rect1191-9-0-0-7"
           width="615.18292"
           height="140.41121"
           x="201.02036"
           y="67.920425" /></flowRegion><flowPara
         id="flowPara1195-1-9-6-5"
         style="font-style:normal;font-variant:normal;font-weight:normal;font-stretch:normal;font-family:'CMU Serif';-inkscape-font-specification:'CMU Serif'">100px auto 20%</flowPara></flowRoot>    <flowRoot
       transform="matrix(0.26458333,0,0,0.26458333,125.18135,44.998906)"
       xml:space="preserve"
       id="flowRoot1187-9"
       style="font-style:normal;font-weight:normal;font-size:40px;line-height:1.25;font-family:sans-serif;letter-spacing:0px;word-spacing:0px;fill:#000000;fill-opacity:1;stroke:none"><flowRegion
         id="flowRegion1189-2"><rect
           id="rect1191-2"
           width="615.18292"
           height="140.41121"
           x="201.02036"
           y="67.920425" /></flowRegion><flowPara
         id="flowPara1195-89"
         style="font-style:normal;font-variant:normal;font-weight:normal;font-stretch:normal;font-family:'CMU Serif';-inkscape-font-specification:'CMU Serif'">1fr 1fr 1fr</flowPara></flowRoot>  </g>
</svg>
