<?xml version="1.0" encoding="UTF-8" standalone="no"?>
<!-- Created with Inkscape (http://www.inkscape.org/) -->

<svg
   xmlns:dc="http://purl.org/dc/elements/1.1/"
   xmlns:cc="http://creativecommons.org/ns#"
   xmlns:rdf="http://www.w3.org/1999/02/22-rdf-syntax-ns#"
   xmlns:svg="http://www.w3.org/2000/svg"
   xmlns="http://www.w3.org/2000/svg"
   xmlns:sodipodi="http://sodipodi.sourceforge.net/DTD/sodipodi-0.dtd"
   xmlns:inkscape="http://www.inkscape.org/namespaces/inkscape"
   width="4.2748876in"
   height="0.49446777in"
   viewBox="0 0 108.58215 12.559481"
   version="1.1"
   id="svg5234"
   sodipodi:docname="letterhead.svg"
   inkscape:version="0.92.1 r15371">
  <defs
     id="defs5228" />
  <sodipodi:namedview
     id="base"
     pagecolor="#ffffff"
     bordercolor="#666666"
     borderopacity="1.0"
     inkscape:pageopacity="0.0"
     inkscape:pageshadow="2"
     inkscape:zoom="0.7"
     inkscape:cx="248.11212"
     inkscape:cy="235.24093"
     inkscape:document-units="mm"
     inkscape:current-layer="layer1"
     showgrid="false"
     inkscape:window-width="1366"
     inkscape:window-height="744"
     inkscape:window-x="0"
     inkscape:window-y="0"
     inkscape:window-maximized="1"
     fit-margin-top="0"
     fit-margin-left="0"
     fit-margin-right="0"
     fit-margin-bottom="0"
     units="in" />
  <metadata
     id="metadata5231">
    <rdf:RDF>
      <cc:Work
         rdf:about="">
        <dc:format>image/svg+xml</dc:format>
        <dc:type
           rdf:resource="http://purl.org/dc/dcmitype/StillImage" />
        <dc:title></dc:title>
      </cc:Work>
    </rdf:RDF>
  </metadata>
  <g
     inkscape:label="Layer 1"
     inkscape:groupmode="layer"
     id="layer1"
     transform="translate(-26.011716,-87.989387)">
    <g
       id="g6800"
       transform="matrix(0.39463588,0,0,0.39463588,15.871587,59.771136)">
      <g
         inkscape:export-ydpi="146.60001"
         inkscape:export-xdpi="146.60001"
         inkscape:export-filename="/home/michaelb/projects/kcfs/syllabus/images/letterhead.png"
         style="opacity:1"
         transform="matrix(0.39801398,0,0,0.39801398,-13.78394,-331.99931)"
         id="g7286-9-5-6-6">
        <path
           style="opacity:1;fill:#19b5fe;fill-opacity:1;stroke-width:0.26458332"
           d="m 151.50268,1022.3123 c -5.19234,-0.02 -12.69721,1.8693 -12.4194,13.0339 0,0 -9.49264,8.2134 -9.59632,19.3326 h 4.86637 v 2.0717 c 0,1.3708 0.0483,2.0712 0.14211,2.0712 0.0934,0 0.12518,0.7856 0.10129,2.4159 6.20484,-2.1671 18.17817,-7.7879 18.13895,-18.9063 -0.0529,-14.0759 2.4077,-17.5683 3.57187,-19.4733 0,0 -2.08508,-0.535 -4.80487,-0.5457 z"
           id="path19072-3-1-55-8-8-5-2-7-7"
           inkscape:connector-curvature="0"
           sodipodi:nodetypes="ccccsscccc" />
        <path
           id="path19074-6-2-4-6-9-9-1-5-5"
           d="m 168.13465,1013.809 c -3.6248,1.905 -13.57312,7.3025 -13.97,9.0223 -0.5027,2.0902 0,1.9844 0,1.9844 0,0 0.92605,0.4498 2.46063,-0.8467 0.34395,-0.291 7.85812,-6.4558 11.7475,-9.8954 0.13229,-0.1058 -0.0529,-0.3439 -0.23813,-0.2646 z"
           inkscape:connector-curvature="0"
           style="fill:#0698dc;fill-opacity:0.98260869;stroke-width:0.26458332" />
        <path
           style="fill:#0698dc;fill-opacity:1;stroke-width:0.26458332"
           d="m 102.28248,1020.8637 c -0.63973,0 -1.26111,0.019 -1.86138,0.074 -1.111255,0.1059 -1.614061,1.4023 -0.899691,2.249 0.961601,1.1333 2.416611,2.5878 4.315501,3.7672 h 0.22427 c 1.49203,0 2.77034,0.055 2.84014,0.1214 0.0698,0.067 1.05805,0.1461 2.19728,0.1763 1.3579,0.036 2.19873,0.1165 2.43965,0.234 0.33537,0.1637 0.36797,0.2445 0.36897,0.9261 7.9e-4,0.4108 0.0381,0.9729 0.0837,1.2485 l 0.0827,0.5007 h 0.91829 0.91777 v 3.1404 2.1999 c 0.78788,0.2877 1.66393,0.5449 2.651,0.756 0,0 0.0116,0.068 0.0424,0.1845 h 2.18436 c 4.73915,0 4.87774,-0.01 4.87774,-0.2589 0,-0.4133 0.17028,-0.4158 0.8201,-0.011 1.1254,0.7004 1.12299,0.6897 1.07849,5.3821 l -0.0295,3.1176 c 0.7519,0.6614 1.65653,1.2298 2.69441,1.4547 0,0 10.1601,2.6195 15.71635,-4.5243 1.0848,-1.4287 0.68812,-3.519 -0.84646,-4.4715 -7.16194,-4.3376 -27.80816,-16.1741 -40.81611,-16.2662 z"
           id="path19080-0-7-6-3-2-7-0-3-3"
           inkscape:connector-curvature="0"
           sodipodi:nodetypes="ccccsccccccccccccsscccccccc" />
        <path
           inkscape:connector-curvature="0"
           style="opacity:1;fill:#19b5fe;fill-opacity:1;stroke:none;stroke-width:0.35714287;stroke-linecap:square;stroke-linejoin:round;stroke-miterlimit:4;stroke-dasharray:none;stroke-dashoffset:0;stroke-opacity:1"
           d="m 103.69487,1029.2978 c -0.0776,0.1213 -0.15143,0.2321 -0.21084,0.3121 l 5.2e-4,1.7126 c 0,1.1368 0.0388,2.8861 0.0868,3.8876 l 0.0873,1.8211 1.41593,0.038 1.41593,0.038 -0.0279,1.1374 c 0.19056,0.048 0.20837,0.125 0.14418,0.2599 -0.079,0.166 -0.14692,1.046 -0.15089,1.9554 -5.2e-4,0.094 -0.005,0.1758 -0.007,0.2657 0.0198,0.3537 0.0549,0.5959 0.10903,0.7265 l 0.16537,0.399 h 0.10852 c -0.0775,-0.405 -0.0846,-1.0777 -0.016,-2.0309 0.0626,-0.8694 0.15969,-2.4522 0.21601,-3.5176 l 0.10232,-1.9374 h 1.73581 c 0.95479,0 2.69294,-0.056 3.8623,-0.123 0.38753,-0.022 0.71399,-0.038 0.98598,-0.046 0.27377,-0.01 0.47402,0 0.64337,0 -0.0216,-0.1933 -0.0481,-0.3064 -0.0801,-0.3384 -0.0931,-0.093 -0.56478,-0.144 -1.35082,-0.1556 0.0227,0.052 -0.0842,0.086 -0.26148,0.079 -0.18074,-0.01 -0.23579,-0.04 -0.16898,-0.084 h -1.39939 v -2.1378 -2.1383 h -3.39101 c -1.86504,0 -3.57887,-0.037 -3.80855,-0.083 z m 11.41635,2.7632 v 0.4418 c 0.22282,0 0.45679,-0.01 0.69247,-0.01 0.49669,0 0.99315,0.01 1.36994,0.027 0.75359,0.036 0.13724,0.065 -1.36994,0.065 h -0.69247 v 0.646 3.1403 h 4.87774 c 2.51265,0 3.71345,0 4.30465,-0.042 l 0.0336,-1.0418 c 0.0354,-1.0916 -0.0156,-1.3787 -0.27233,-1.5224 -0.17402,-0.097 -1.43009,-0.1511 -2.79105,-0.1193 l -2.47426,0.058 0.0904,-0.803 0.091,-0.8031 -2.81172,-0.024 c -0.39427,0 -0.69418,-0.01 -1.048,-0.012 z m -0.72553,2.4122 c -0.54666,0.057 -1.59731,0.081 -3.30678,0.081 h -3.77961 v 3.8742 c 0,1.6337 -0.0331,2.8196 -0.0899,3.4225 h 3.37344 3.85919 v -3.9155 c 0,-1.7674 -0.0164,-2.8562 -0.0563,-3.4618 z m 3.53105,2.5663 v 3.7155 c 0,2.7113 0.0432,3.7582 0.1602,3.8752 0.11704,0.117 1.1639,0.1602 3.87521,0.1602 h 3.71502 v -3.715 c 0,-2.7113 -0.0432,-3.7582 -0.1602,-3.8752 -0.11704,-0.117 -1.16391,-0.1607 -3.87521,-0.1607 z m 8.77206,0.4072 c 0.10717,0.6921 0.0972,1.8514 0.0765,4.0364 l -0.0388,4.1093 h -7.22643 5.56852 c -0.004,0.2716 -0.0112,0.5322 -0.0253,0.7328 -0.0333,0.4749 -0.0596,0.1229 -0.0656,-0.7328 h 1.74881 c 0.003,0.2641 0.007,0.8108 0.007,0.8108 v 3.0805 h 0.67825 -6.69436 v -0.5354 c 0,-0.3428 0.0988,-0.5354 0.27492,-0.5354 0.15134,0 0.23266,0.069 0.18086,0.1525 -0.0518,0.084 -0.14474,1.7493 -0.2067,3.701 l -0.078,2.4608 c 0.79863,-0.046 2.51979,-0.049 6.38256,-0.049 h 1.76165 v -0.5653 -1.417 h 0.28319 v 1.4108 0.5715 h 2.5585 c -0.002,-0.087 -0.007,-0.1562 -0.007,-0.2609 0,-0.8156 0.0756,-1.143 0.28319,-1.2227 0.0292,-0.011 0.0558,-0.018 0.0796,-0.019 0.16622,-0.01 0.20412,0.2498 0.20412,1.1327 0,0.149 -0.005,0.253 -0.008,0.3701 h 0.20206 c -0.001,-0.1123 -0.005,-0.1922 -0.005,-0.338 0,-0.6741 -0.0985,-1.2891 -0.22687,-1.4175 -0.13601,-0.136 -0.79354,-0.2264 -1.64847,-0.2269 1.19514,0 1.71844,0.071 1.76733,0.2367 0.0383,0.1299 0.14209,0.7463 0.23048,1.3699 0.0228,0.1606 0.0411,0.2571 0.0605,0.3758 h 1.54668 v 2.0716 c 0,1.3708 0.0483,2.0712 0.1421,2.0712 0.0962,0 0.12846,0.8159 0.10026,2.5503 l -0.0419,-0.2374 -0.12713,0.1137 c 0.26199,0.456 0.27272,-0.063 0.27334,-0.2789 l 0.003,-2.9719 3.26026,-0.052 3.26027,-0.052 0.0543,-1.7482 0.0543,-1.7482 h 0.94464 0.94465 l -0.0217,-3.898 c -0.0134,-2.4245 -0.096,-3.9781 -0.21912,-4.1103 -0.13199,-0.1418 -0.96101,-0.1927 -2.48925,-0.1519 -1.26036,0.034 -2.73834,0.01 -3.28403,-0.061 l -0.99219,-0.122 v -0.9317 -0.9313 l -3.92122,-0.043 -3.92171,-0.043 3.93051,-0.055 c 2.5036,-0.035 3.88865,-0.1223 3.81578,-0.2402 -0.18142,-0.2936 -7.7852,-0.2439 -7.90443,0.052 -0.0558,0.1383 -0.10185,0.096 -0.11059,-0.1019 -0.0123,-0.2794 -0.0605,-0.2963 -0.2775,-0.095 -0.19021,0.1766 -0.20252,0.2819 -0.0465,0.3825 0.11843,0.076 0.13026,0.139 0.0264,0.139 -0.55411,0 -0.62879,-0.3643 -0.69143,-3.3662 -0.0576,-2.7565 -0.0817,-3.066 -0.4253,-3.373 z m 2.64068,6.921 c 0.93926,0.01 1.87892,0.047 1.94613,0.1142 0.0486,0.049 -0.83299,0.088 -1.95905,0.088 -1.12605,0 -1.9954,-0.053 -1.93167,-0.1163 0.0662,-0.066 1.00532,-0.093 1.94459,-0.086 z m 5.75106,1.9032 0.99219,0.034 0.99219,0.034 -0.88986,0.07 -0.88937,0.071 -0.0651,1.3602 -0.0651,1.3601 -0.0377,-1.465 z m -4.02662,9.0367 c -0.46067,0 -1.09883,0 -1.73736,0.01 v 0.2005 l -0.28371,0.01 v -0.2072 c -0.12106,0 -0.18607,-2e-4 -0.31368,0 -2.62579,0.035 -3.03939,0.069 -3.11039,0.2542 -0.0155,0.041 -0.0304,0.1464 -0.0444,0.2894 0.0397,0.022 0.0713,0.046 0.0894,0.075 0.12333,0.1946 0.16116,0.1768 0.16329,-0.077 7.9e-4,-0.09 0.0272,-0.1543 0.0977,-0.2025 v 4.456 c 0,1.5894 -0.0119,2.8892 -0.0295,3.6344 l 0.18293,0.033 c 0.25726,0.045 2.04003,0.09 3.96152,0.1003 3.2114,0.016 3.50103,-3e-4 3.58893,-0.2166 0.0526,-0.1286 0.12565,-1.9175 0.16175,-3.9754 0.0559,-3.1866 0.0359,-3.7809 -0.13436,-4.005 -0.0428,-0.056 -0.10586,-0.1035 -0.18862,-0.1457 -0.0916,-0.01 -0.19074,-0.01 -0.30283,-0.01 -0.2666,0 -0.39853,0 -0.46457,-0.1617 -0.0995,-0.01 -0.214,-0.018 -0.33434,-0.025 -0.044,0.1327 -0.10847,0.187 -0.20464,0.187 -0.10237,0 -0.16953,-0.058 -0.21343,-0.2031 -0.26446,-0.01 -0.53017,-0.018 -0.88366,-0.021 z m -10.18801,0.139 -0.0119,0.3685 2.31976,-0.064 c 0.73021,-0.02 1.24897,-0.024 1.62522,-0.01 l -5.3e-4,-0.096 -2.00401,-0.056 c -0.92672,-0.026 -1.5294,-0.068 -1.92856,-0.1427 z m 6.56033,0.085 h 1.46916 l -1.28003,0.041 -1.63556,0.052 c 0.19195,-0.076 0.59771,-0.092 1.44643,-0.092 z m -3.91656,8.6975 c -1.16685,-0.011 -2.36178,0.033 -2.50889,0.1406 -0.19761,0.1452 -0.32144,4.7769 -0.26613,7.2244 0.0101,0.2964 0.0217,0.5166 0.0367,0.5601 l 0.10438,0.3029 3.76566,-0.035 3.76566,-0.036 0.0351,-3.9554 0.0341,-3.7734 c -0.0383,0 -0.086,-0.01 -0.12299,-0.01 -1.56762,-0.1078 -1.81893,-0.1362 -0.0527,-0.1865 l -1.19063,-0.078 c -0.51809,-0.034 -0.97735,-0.084 -1.23971,-0.1297 -0.006,0.1083 -0.0123,0.1783 -0.0186,0.1591 -0.0364,-0.1098 -1.17513,-0.1751 -2.34198,-0.186 z"
           id="path6499-1-5-8-9-2-5-5"
           sodipodi:nodetypes="cccccccccccccccccsccccccccccsccccscscccscccccccccccscscccscccscscscscccccccccccccsscccscccccccsccsccsccccccssccccccccccccccccccccccccccscccccscccccccccccccccccccccccsccccsccsccscccccccccccccccsccccccccccccccccc" />
        <path
           inkscape:connector-curvature="0"
           style="opacity:1;fill:#0698dc;fill-opacity:1;stroke:none;stroke-width:0.50507629;stroke-linecap:square;stroke-linejoin:round;stroke-miterlimit:4;stroke-dasharray:none;stroke-dashoffset:0;stroke-opacity:1"
           d="m 133.30753,1055.4807 -3.5326,0.069 -3.79512,0.074 -0.0739,4.0685 -0.0734,4.0483 0.12713,0.023 3.68814,0.072 c 1.19144,0.023 2.23651,0.036 2.96778,0.041 0.81197,-0.021 0.94965,-0.079 1.00304,-0.2098 0.008,-0.02 0.0166,-0.088 0.0253,-0.1793 0.0345,-0.6641 0.0393,-2.1351 0.007,-3.8349 l -0.0775,-4.038 c -0.0618,-0.052 -0.14932,-0.096 -0.26562,-0.1333 z m -12.27264,9.0966 v 3.8757 3.8753 h 3.74189 3.63078 l 0.0346,-3.8975 0.0346,-3.8535 h -3.70003 z"
           id="path6521-2-7-6-9-0-6-6" />
        <path
           sodipodi:nodetypes="ccccccccccccccscccccscscccccccscccccccccccscsccsscccccccccscscccccccccc"
           style="opacity:1;fill:#0698dc;fill-opacity:1;stroke:none;stroke-width:0.50507629;stroke-linecap:square;stroke-linejoin:round;stroke-miterlimit:4;stroke-dasharray:none;stroke-dashoffset:0;stroke-opacity:1"
           d="m 108.09706,1027.0035 c 7.1e-4,5e-4 0.005,10e-4 0.005,0 0.0698,0.067 1.05805,0.1461 2.19728,0.1762 0.80751,0.021 1.40719,0.06 1.83141,0.1116 -0.002,0 -0.006,-0.01 -0.008,-0.013 -0.0489,-0.1469 -2.01978,-0.2465 -4.02611,-0.2764 z m -4.20595,2.3337 c 0.0616,0.2943 0.74352,0.3525 3.71347,0.3525 h -0.24546 -3.74189 v 3.7419 0.3059 c 0,-1.5407 -0.0474,-2.6808 -0.13333,-3.3414 v 0.9265 c 0,1.1368 0.0393,2.8861 0.0873,3.8876 l 0.0873,1.8211 1.41593,0.038 1.41594,0.038 -0.003,0.1323 c 0.0423,-0.3623 0.0703,-0.8617 0.0703,-1.418 v -1.8547 h 2.54713 c 1.67255,0 2.36934,-0.066 2.60656,-0.2677 h -0.6103 v -0.2661 -1.8707 -10e-4 -1.8701 -0.2672 h -3.391 c -1.86504,0 -3.57888,-0.037 -3.80856,-0.083 z m 11.21947,1.0888 v 2.805 c -0.27654,0.6882 0.15851,4.675 0.28113,2.3389 l 0.14831,-2.8065 0.0522,3.007 c -0.53032,1.2399 9.05344,0.6174 9.2737,0.3427 0,-0.033 0.003,-0.06 0.006,-0.088 -0.0896,-0.061 -0.15363,-0.1503 -0.1602,-0.2542 -0.0169,-0.2673 -0.0477,-0.2673 -0.15555,0 -0.31583,0.7827 -0.62476,0.2286 -0.62476,-1.1204 0,-0.7998 -0.12069,-1.5286 -0.26769,-1.6195 -0.147,-0.091 -0.26716,-0.038 -0.26716,0.1178 0,0.1883 -1.27437,0.2662 -3.80856,0.2326 -2.09472,-0.028 -3.11693,-0.094 -2.27169,-0.1468 0.84524,-0.053 1.53685,-0.2107 1.53685,-0.3504 0,-0.1396 -0.13455,-0.2537 -0.29869,-0.2537 -0.29505,0 -0.22506,-0.758 0.15245,-1.6531 0.16985,-0.4027 -0.10813,-0.4588 -2.63912,-0.5343 -0.37977,-0.011 -0.66311,-0.014 -0.95601,-0.017 z m -8.82065,3.0066 h 0.0217 l -0.0217,0.5798 z m 8.04086,0.5664 c -0.46803,0.1456 -1.74371,0.2346 -3.78014,0.2346 h -3.72587 v 3.7413 c 0,1.9748 -0.0741,3.2927 -0.19843,3.6411 l 0.0971,0.2347 h 3.85919 c 5.12889,0.9537 3.90873,-2.4362 3.8432,-6.0865 -0.004,-0.2613 -0.009,-0.5124 -0.016,-0.7131 -0.0178,-0.5298 -0.0429,-0.8839 -0.0791,-1.0521 z m -8.01037,8.418 c 0.0138,0.039 0.0332,0.056 0.0589,0.048 -0.0207,-0.015 -0.0392,-0.032 -0.0589,-0.048 z"
           id="path6526-0-4-7-0-6-2-2"
           inkscape:connector-curvature="0" />
      </g>
      <g
         inkscape:export-ydpi="146.60001"
         inkscape:export-xdpi="146.60001"
         inkscape:export-filename="/home/michaelb/projects/kcfs/syllabus/images/letterhead.png"
         id="flowRoot6537-6-2-8-91-9"
         style="font-style:normal;font-weight:normal;font-size:20px;line-height:1.25;font-family:sans-serif;letter-spacing:0px;word-spacing:0px;fill:#000000;fill-opacity:1;stroke:none"
         transform="matrix(0.9716338,0,0,0.9716338,-677.36844,-787.01596)"
         aria-label="KICKSTART CODING">
        <path
           inkscape:connector-curvature="0"
           id="path4858-1"
           style="font-style:normal;font-variant:normal;font-weight:normal;font-stretch:normal;font-family:Roboto;-inkscape-font-specification:Roboto;fill:#000000;stroke-width:0.80740088"
           d="m 757.48988,895.86787 -0.93567,0.97245 v 2.58621 h -1.00925 v -7.65349 h 1.00925 v 3.78469 l 3.40097,-3.78469 h 1.21951 l -3.01198,3.37994 3.24853,4.27355 h -1.20901 z" />
        <path
           inkscape:connector-curvature="0"
           id="path4860-2"
           style="font-style:normal;font-variant:normal;font-weight:normal;font-stretch:normal;font-family:Roboto;-inkscape-font-specification:Roboto;fill:#000000;stroke-width:0.80740088"
           d="M 764.25225,899.42653 H 763.243 v -7.65349 h 1.00925 z" />
        <path
           inkscape:connector-curvature="0"
           id="path4862-7"
           style="font-style:normal;font-variant:normal;font-weight:normal;font-stretch:normal;font-family:Roboto;-inkscape-font-specification:Roboto;fill:#000000;stroke-width:0.80740088"
           d="m 772.59684,896.99802 q -0.14193,1.21425 -0.89886,1.87658 -0.75169,0.65706 -2.00274,0.65706 -1.35618,0 -2.17619,-0.97245 -0.81477,-0.97246 -0.81477,-2.60198 v -0.73591 q 0,-1.06708 0.37847,-1.87658 0.38373,-0.8095 1.08285,-1.24053 0.69912,-0.4363 1.619,-0.4363 1.21952,0 1.95542,0.68335 0.73592,0.67809 0.85682,1.88184 h -1.01451 q -0.13141,-0.91464 -0.57295,-1.32465 -0.4363,-0.41001 -1.22478,-0.41001 -0.9672,0 -1.51913,0.71489 -0.54668,0.71488 -0.54668,2.03427 v 0.74117 q 0,1.2458 0.5204,1.9817 0.5204,0.73592 1.45605,0.73592 0.84105,0 1.28785,-0.37847 0.45206,-0.38373 0.59924,-1.3299 z" />
        <path
           inkscape:connector-curvature="0"
           id="path4864-0"
           style="font-style:normal;font-variant:normal;font-weight:normal;font-stretch:normal;font-family:Roboto;-inkscape-font-specification:Roboto;fill:#000000;stroke-width:0.80740088"
           d="m 776.78878,895.86787 -0.93566,0.97245 v 2.58621 h -1.00925 v -7.65349 h 1.00925 v 3.78469 l 3.40096,-3.78469 h 1.21952 l -3.01199,3.37994 3.24853,4.27355 h -1.209 z" />
        <path
           inkscape:connector-curvature="0"
           id="path4866-9"
           style="font-style:normal;font-variant:normal;font-weight:normal;font-stretch:normal;font-family:Roboto;-inkscape-font-specification:Roboto;fill:#000000;stroke-width:0.80740088"
           d="m 784.72336,896.01505 q -1.29836,-0.37321 -1.89234,-0.91463 -0.58874,-0.54668 -0.58874,-1.34567 0,-0.90412 0.72015,-1.49285 0.7254,-0.59399 1.88183,-0.59399 0.78848,0 1.40349,0.30488 0.62027,0.30488 0.95668,0.84105 0.34168,0.53616 0.34168,1.1722 h -1.01451 q 0,-0.69387 -0.44154,-1.0881 -0.44155,-0.3995 -1.2458,-0.3995 -0.74642,0 -1.16694,0.33117 -0.41527,0.3259 -0.41527,0.90937 0,0.46783 0.39423,0.79373 0.39951,0.32065 1.35093,0.58874 0.95669,0.26808 1.49285,0.59398 0.54142,0.32065 0.79899,0.75169 0.26283,0.43103 0.26283,1.0145 0,0.9304 -0.7254,1.49285 -0.7254,0.55719 -1.93966,0.55719 -0.78847,0 -1.47182,-0.29962 -0.68335,-0.30488 -1.05656,-0.83053 -0.36796,-0.52565 -0.36796,-1.19323 h 1.01451 q 0,0.69386 0.50988,1.09861 0.51514,0.3995 1.37195,0.3995 0.799,0 1.22477,-0.3259 0.42578,-0.32591 0.42578,-0.88835 0,-0.56246 -0.39424,-0.86733 -0.39424,-0.31014 -1.42977,-0.60976 z" />
        <path
           inkscape:connector-curvature="0"
           id="path4868-3"
           style="font-style:normal;font-variant:normal;font-weight:normal;font-stretch:normal;font-family:Roboto;-inkscape-font-specification:Roboto;fill:#000000;stroke-width:0.80740088"
           d="m 795.02337,892.60357 h -2.46005 v 6.82296 h -1.00399 v -6.82296 h -2.45479 v -0.83053 h 5.91883 z" />
        <path
           inkscape:connector-curvature="0"
           id="path4870-6"
           style="font-style:normal;font-variant:normal;font-weight:normal;font-stretch:normal;font-family:Roboto;-inkscape-font-specification:Roboto;fill:#000000;stroke-width:0.80740088"
           d="m 800.85009,897.42905 h -3.20647 l -0.72015,1.99748 h -1.04079 l 2.92262,-7.65349 h 0.8831 l 2.92789,7.65349 h -1.03554 z m -2.9016,-0.83052 h 2.60198 l -1.30361,-3.57969 z" />
        <path
           inkscape:connector-curvature="0"
           id="path4872-0"
           style="font-style:normal;font-variant:normal;font-weight:normal;font-stretch:normal;font-family:Roboto;-inkscape-font-specification:Roboto;fill:#000000;stroke-width:0.80740088"
           d="m 807.32862,896.33044 h -1.79773 v 3.09609 h -1.01451 v -7.65349 h 2.53364 q 1.2931,0 1.98697,0.58873 0.69911,0.58874 0.69911,1.71363 0,0.71488 -0.38898,1.24579 -0.38373,0.53091 -1.07233,0.79374 l 1.79773,3.24852 v 0.0631 h -1.08285 z m -1.79773,-0.82527 h 1.55067 q 0.75168,0 1.19323,-0.38898 0.4468,-0.38898 0.4468,-1.04079 0,-0.70963 -0.42577,-1.0881 -0.42053,-0.37847 -1.21952,-0.38373 h -1.54541 z" />
        <path
           inkscape:connector-curvature="0"
           id="path4874-6"
           style="font-style:normal;font-variant:normal;font-weight:normal;font-stretch:normal;font-family:Roboto;-inkscape-font-specification:Roboto;fill:#000000;stroke-width:0.80740088"
           d="m 816.88746,892.60357 h -2.46005 v 6.82296 h -1.00399 v -6.82296 h -2.4548 v -0.83053 h 5.91884 z" />
        <path
           inkscape:connector-curvature="0"
           id="path4876-2"
           style="font-style:normal;font-variant:normal;font-weight:300;font-stretch:normal;font-size:13.33333397px;font-family:Roboto;-inkscape-font-specification:'Roboto Light';letter-spacing:1.08382261px;word-spacing:1.62573385px;fill:#000000;fill-opacity:1;stroke-width:0.80740088"
           d="m 829.9113,897.04007 q -0.13141,1.209 -0.86732,1.8503 -0.73066,0.64129 -1.95017,0.64129 -0.85155,0 -1.50862,-0.42578 -0.65181,-0.42577 -1.00925,-1.20374 -0.35744,-0.78322 -0.3627,-1.78721 v -0.99348 q 0,-1.01977 0.35745,-1.80824 0.35743,-0.78849 1.02502,-1.21426 0.67283,-0.43104 1.54541,-0.43104 1.23003,0 1.93965,0.66758 0.71489,0.66232 0.83053,1.83452 h -0.6518 q -0.2418,-1.95016 -2.11838,-1.95016 -1.04079,0 -1.66106,0.77796 -0.61501,0.77797 -0.61501,2.14992 v 0.93565 q 0,1.32465 0.59924,2.11312 0.6045,0.78848 1.62952,0.78848 1.01451,0 1.52965,-0.48359 0.51514,-0.48886 0.63604,-1.46132 z" />
        <path
           inkscape:connector-curvature="0"
           id="path4878-6"
           style="font-style:normal;font-variant:normal;font-weight:300;font-stretch:normal;font-size:13.33333397px;font-family:Roboto;-inkscape-font-specification:'Roboto Light';letter-spacing:1.08382261px;word-spacing:1.62573385px;fill:#000000;fill-opacity:1;stroke-width:0.80740088"
           d="m 838.02461,896.01505 q 0,1.05656 -0.36796,1.85556 -0.3627,0.79898 -1.04079,1.23001 -0.67809,0.43104 -1.56644,0.43104 -1.34042,0 -2.16569,-0.95669 -0.82527,-0.96193 -0.82527,-2.59145 v -0.78849 q 0,-1.04604 0.36795,-1.85029 0.37322,-0.8095 1.05131,-1.24053 0.67809,-0.4363 1.56118,-0.4363 0.8831,0 1.55593,0.42578 0.6781,0.42578 1.04605,1.20374 0.36796,0.77797 0.38373,1.80299 z m -0.64655,-0.83053 q 0,-1.38246 -0.62553,-2.16568 -0.62552,-0.78322 -1.71363,-0.78322 -1.06706,0 -1.70311,0.78847 -0.63078,0.78322 -0.63078,2.19198 v 0.79898 q 0,1.36144 0.63078,2.16043 0.63079,0.79373 1.71363,0.79373 1.09861,0 1.71362,-0.78322 0.61502,-0.78847 0.61502,-2.19196 z" />
        <path
           inkscape:connector-curvature="0"
           id="path4880-1"
           style="font-style:normal;font-variant:normal;font-weight:300;font-stretch:normal;font-size:13.33333397px;font-family:Roboto;-inkscape-font-specification:'Roboto Light';letter-spacing:1.08382261px;word-spacing:1.62573385px;fill:#000000;fill-opacity:1;stroke-width:0.80740088"
           d="m 840.53972,899.42653 v -7.65349 h 2.1394 q 0.94091,0 1.68734,0.43104 0.74643,0.42578 1.16169,1.22476 0.42052,0.799 0.42052,1.81876 v 0.70437 q 0,1.02503 -0.41527,1.81876 -0.41526,0.79373 -1.1722,1.22477 -0.75168,0.43103 -1.72939,0.43103 z m 0.64655,-7.10155 v 6.55488 h 1.45079 q 1.20901,0 1.93966,-0.799 0.73065,-0.80424 0.73065,-2.17094 v -0.67283 q 0,-1.31939 -0.72013,-2.11312 -0.72015,-0.79373 -1.89761,-0.79899 z" />
        <path
           inkscape:connector-curvature="0"
           id="path4882-8"
           style="font-style:normal;font-variant:normal;font-weight:300;font-stretch:normal;font-size:13.33333397px;font-family:Roboto;-inkscape-font-specification:'Roboto Light';letter-spacing:1.08382261px;word-spacing:1.62573385px;fill:#000000;fill-opacity:1;stroke-width:0.80740088"
           d="m 849.247,899.42653 h -0.64655 v -7.65349 h 0.64655 z" />
        <path
           inkscape:connector-curvature="0"
           id="path4884-7"
           style="font-style:normal;font-variant:normal;font-weight:300;font-stretch:normal;font-size:13.33333397px;font-family:Roboto;-inkscape-font-specification:'Roboto Light';letter-spacing:1.08382261px;word-spacing:1.62573385px;fill:#000000;fill-opacity:1;stroke-width:0.80740088"
           d="m 857.89122,899.42653 h -0.64656 l -4.3997,-6.54962 v 6.54962 h -0.65181 v -7.65349 h 0.65181 l 4.40496,6.55488 v -6.55488 h 0.6413 z" />
        <path
           inkscape:connector-curvature="0"
           id="path4886-9"
           style="font-style:normal;font-variant:normal;font-weight:300;font-stretch:normal;font-size:13.33333397px;font-family:Roboto;-inkscape-font-specification:'Roboto Light';letter-spacing:1.08382261px;word-spacing:1.62573385px;fill:#000000;fill-opacity:1;stroke-width:0.80740088"
           d="m 866.24632,898.51716 q -0.33642,0.47834 -1.05656,0.74642 -0.71489,0.26808 -1.60324,0.26808 -0.89887,0 -1.59798,-0.43104 -0.69912,-0.43103 -1.08284,-1.2195 -0.38373,-0.78849 -0.38899,-1.80825 v -0.96719 q 0,-1.59273 0.80425,-2.51262 0.80425,-0.92515 2.16043,-0.92515 1.18272,0 1.90286,0.6045 0.72014,0.59925 0.85681,1.6558 h -0.64655 q -0.14193,-0.84103 -0.6886,-1.27207 -0.54142,-0.43629 -1.41926,-0.43629 -1.07233,0 -1.69786,0.76219 -0.62553,0.7622 -0.62553,2.14992 v 0.90412 q 0,0.87258 0.29437,1.54541 0.29962,0.66758 0.85155,1.03554 0.5572,0.36795 1.27734,0.36795 0.83579,0 1.43503,-0.26282 0.38898,-0.17347 0.57821,-0.40475 v -1.97645 h -2.05529 v -0.54668 h 2.70185 z" />
      </g>
    </g>
    <rect
       y="99.188148"
       x="26.011717"
       height="1.3607202"
       width="102.84559"
       id="rect5819-7-4"
       style="opacity:1;fill:#ffff00;fill-opacity:1;stroke:none;stroke-width:0.16230364;stroke-linecap:square;stroke-linejoin:round;stroke-miterlimit:4;stroke-dasharray:none;stroke-dashoffset:0;stroke-opacity:1"
       inkscape:export-filename="/home/michaelb/projects/kickstartcoding/kickstartcoding/static/img/square_poster_photo.png"
       inkscape:export-xdpi="65.019997"
       inkscape:export-ydpi="65.019997" />
    <flowRoot
       xml:space="preserve"
       id="flowRoot6745"
       style="font-style:normal;font-weight:normal;font-size:20px;line-height:1.25;font-family:sans-serif;letter-spacing:0px;word-spacing:0px;fill:#000000;fill-opacity:1;stroke:none"
       transform="matrix(0.26458333,0,0,0.26458333,25.694899,71.504525)"><flowRegion
         id="flowRegion6747"><rect
           id="rect6749"
           width="226.01207"
           height="97.05584"
           x="837.41644"
           y="5.0497947" /></flowRegion><flowPara
         id="flowPara6751"></flowPara></flowRoot>    <rect
       y="99.188148"
       x="127.41274"
       height="1.3607202"
       width="3.432961"
       id="rect5819-7-4-5"
       style="opacity:1;fill:#19b5fe;fill-opacity:1;stroke:none;stroke-width:0.02965308;stroke-linecap:square;stroke-linejoin:round;stroke-miterlimit:4;stroke-dasharray:none;stroke-dashoffset:0;stroke-opacity:1"
       inkscape:export-filename="/home/michaelb/projects/kickstartcoding/kickstartcoding/static/img/square_poster_photo.png"
       inkscape:export-xdpi="65.019997"
       inkscape:export-ydpi="65.019997" />
    <rect
       y="99.188148"
       x="128.85732"
       height="1.3607202"
       width="5.7365394"
       id="rect5819-7-4-5-9"
       style="opacity:1;fill:#272727;fill-opacity:1;stroke:none;stroke-width:0.0383319;stroke-linecap:square;stroke-linejoin:round;stroke-miterlimit:4;stroke-dasharray:none;stroke-dashoffset:0;stroke-opacity:1"
       inkscape:export-filename="/home/michaelb/projects/kickstartcoding/kickstartcoding/static/img/square_poster_photo.png"
       inkscape:export-xdpi="65.019997"
       inkscape:export-ydpi="65.019997" />
  </g>
</svg>
